<svg width="150" height="150" viewBox="0 0 150 150" fill="none" xmlns="http://www.w3.org/2000/svg">
<rect width="150" height="150" rx="5" fill="white"/>
<circle cx="75" cy="75" r="60" fill="url(#paint0_radial)"/>
<g filter="url(#filter0_d)">
<circle cx="75" cy="75" r="35" fill="#010101"/>
<circle cx="75" cy="75" r="32.5" stroke="white" stroke-width="5"/>
</g>
<path d="M87 76.5C87 82.7833 81.6966 88 75 88C68.3034 88 63 82.7833 63 76.5C63 70.2167 68.3034 65 75 65C81.6966 65 87 70.2167 87 76.5Z" fill="#4BC06C" stroke="white" stroke-width="4"/>
<path d="M79 58.0307C81.9333 57.7589 88.44 59.1723 91 67" stroke="white" stroke-width="4"/>
<path d="M68.9245 94.1638C65.9302 94.2862 59.3885 92.5475 57.1761 84.6136" stroke="white" stroke-width="4"/>
<defs>
<filter id="filter0_d" x="36" y="39" width="78" height="78" filterUnits="userSpaceOnUse" color-interpolation-filters="sRGB">
<feFlood flood-opacity="0" result="BackgroundImageFix"/>
<feColorMatrix in="SourceAlpha" type="matrix" values="0 0 0 0 0 0 0 0 0 0 0 0 0 0 0 0 0 0 127 0"/>
<feOffset dy="3"/>
<feGaussianBlur stdDeviation="2"/>
<feColorMatrix type="matrix" values="0 0 0 0 0 0 0 0 0 0 0 0 0 0 0 0 0 0 1 0"/>
<feBlend mode="normal" in2="BackgroundImageFix" result="effect1_dropShadow"/>
<feBlend mode="normal" in="SourceGraphic" in2="effect1_dropShadow" result="shape"/>
</filter>
<radialGradient id="paint0_radial" cx="0" cy="0" r="1" gradientUnits="userSpaceOnUse" gradientTransform="translate(75 75) rotate(90) scale(60)">
<stop stop-color="#63A4F0"/>
<stop offset="1" stop-color="#236CC2"/>
</radialGradient>
</defs>
</svg>
