<svg width="170" height="170" viewBox="0 0 170 170" fill="none" xmlns="http://www.w3.org/2000/svg">
<g clip-path="url(#clip0)">
<path d="M58.8758 163.943C97.2457 180.17 147.935 162.421 164.07 127.045C138.183 145.856 110.9 149.147 83.186 132.053C58.7936 117.007 47.2423 93.8019 50.8145 65.5938C55.3603 29.6966 78.0669 9.79548 113.47 3.35543C80.6612 -7.01013 30.6212 5.67395 11.445 54.9661C-3.37372 93.0637 11.4198 143.871 58.8758 163.943Z" fill="white"/>
<path d="M108.691 36.1522L119.722 46.8329L117.179 62.4254C116.789 64.8171 118.279 65.9815 120.507 65.0259L134.169 59.1652L147.831 65.0259C150.059 65.9815 151.466 64.8323 150.975 62.4583L147.739 46.8319L159.558 36.0551C161.349 34.4227 160.868 32.7459 158.484 32.3107L143.561 29.5874L136.264 16.153C135.108 14.0234 133.232 14.0234 132.076 16.153L124.779 29.5874L109.855 32.312C107.471 32.7465 106.949 34.4652 108.691 36.1522Z" fill="white"/>
<path d="M132.734 100.338L121.995 98.379L116.743 88.7104C115.91 87.1782 114.561 87.1782 113.728 88.7104L108.477 98.379L97.7388 100.338C96.023 100.65 95.6483 101.888 96.9011 103.102L104.84 110.788L103.01 122.009C102.729 123.73 103.801 124.568 105.404 123.881L115.236 119.664L125.067 123.881C126.671 124.568 127.683 123.742 127.329 122.033L125 110.788L133.506 103.033C134.796 101.857 134.45 100.65 132.734 100.338Z" fill="white"/>
</g>
<defs>
<clipPath id="clip0">
<rect width="170" height="170" fill="white"/>
</clipPath>
</defs>
</svg>
